<svg width="156" height="140" viewBox="0 0 156 140" fill="none" xmlns="http://www.w3.org/2000/svg">
    <path fill-rule="evenodd" clip-rule="evenodd"
          d="M5.83458 59.6288C6.32404 59.2583 7.01483 59.3312 7.3775 59.7915C10.1958 63.3688 12.8025 67.0146 15.3582 70.589C17.1906 73.1517 18.9967 75.6778 20.8358 78.1157C25.2882 84.0178 30.0697 89.602 36.2825 94.5836C47.4035 103.501 60.5643 110.029 75.2102 111.415C82.7646 112.13 91.4376 111.046 98.9456 107.873C106.445 104.703 112.703 99.4886 115.629 91.9718C117.114 88.159 117.775 83.9209 117.695 79.5969C114.44 82.312 110.707 84.6301 106.425 86.4281C96.2806 90.6871 87.384 85.5832 82.5264 77.8419C77.6879 70.131 76.5478 59.3631 82.2257 51.6506C85.2797 47.5023 89.2976 45.3681 93.5533 45.0727C97.7764 44.7795 102.106 46.3036 105.855 49.2221C111.889 53.9193 116.231 61.1913 118.379 69.0362C118.91 70.9787 119.31 72.963 119.566 74.9595C127.582 66.7109 132.098 55.5704 134.701 44.1711C134.834 43.5896 135.424 43.204 136.018 43.3096C136.613 43.4152 136.987 43.9722 136.854 44.5536C134.08 56.7045 129.088 68.9097 119.828 77.6976C120.15 82.8655 119.494 88.0233 117.689 92.657C114.484 100.888 107.664 106.488 99.7579 109.829C91.8601 113.167 82.7992 114.292 74.9094 113.545C59.7259 112.108 46.1819 105.352 34.8371 96.255C28.437 91.1231 23.5388 85.3909 19.0374 79.4238C17.1201 76.8823 15.2982 74.3324 13.4673 71.7699C10.9536 68.2518 8.42284 64.7099 5.60503 61.1332C5.24235 60.6729 5.34512 59.9993 5.83458 59.6288ZM117.551 76.9043C117.336 74.4753 116.896 72.0415 116.245 69.662C114.187 62.1458 110.049 55.2844 104.433 50.9119C101.002 48.2407 97.1855 46.9598 93.623 47.2071C90.093 47.4522 86.6861 49.2039 84.0036 52.8475C79.0176 59.6202 79.8719 69.4234 84.4233 76.6767C88.9555 83.8996 96.8442 88.153 105.618 84.4694C110.222 82.5362 114.168 79.9609 117.551 76.9043Z"
          fill="#7927E1"/>
    <path fill-rule="evenodd" clip-rule="evenodd"
          d="M5.93735 66.9285C5.34808 67.1011 4.74516 66.7828 4.5907 66.2176C4.57457 66.1586 4.55119 66.0742 4.52163 65.9674C4.29569 65.1513 3.70879 63.0315 3.24105 61.0038C2.97785 59.8628 2.74388 58.7153 2.63644 57.8323C2.58412 57.4023 2.5531 56.9699 2.5852 56.613C2.60032 56.4448 2.63653 56.1962 2.75515 55.9524C2.88304 55.6894 3.2051 55.2643 3.80838 55.2003C4.66678 55.1092 5.47511 55.4453 6.099 55.7877C6.74945 56.1447 7.39874 56.6244 7.95815 57.0403L8.0038 57.0742C8.57628 57.4998 9.04075 57.8451 9.43445 58.0623C9.59094 58.1486 9.69882 58.1929 9.76508 58.2137C10.2774 58.0484 10.837 58.2602 11.0716 58.734C11.3313 59.258 11.095 59.9042 10.5439 60.1772C10.0759 60.4091 9.60759 60.3929 9.25 60.3158C8.89849 60.24 8.56937 60.0887 8.28696 59.9329C7.76385 59.6444 7.1944 59.2206 6.6772 58.8356C6.64216 58.8096 6.60736 58.7837 6.57283 58.758C5.99452 58.3281 5.4584 57.9366 4.95542 57.6606C4.91581 57.6388 4.87741 57.6184 4.8402 57.5992C4.93973 58.3608 5.14607 59.3793 5.39484 60.4577C5.8513 62.4365 6.42438 64.5071 6.65274 65.3321C6.68321 65.4422 6.70754 65.5302 6.72464 65.5927C6.87911 66.1579 6.52662 66.7559 5.93735 66.9285ZM4.78736 56.679C4.78743 56.6791 4.78705 56.6817 4.78601 56.6864C4.78677 56.6813 4.78729 56.6789 4.78736 56.679Z"
          fill="#5000B6"/>
</svg>
