<svg viewBox="0 0 323 201" fill="none" xmlns="http://www.w3.org/2000/svg">
    <path fill-rule="evenodd" clip-rule="evenodd"
          d="M142.351 12.9775L0 12.5166L3.64459 134.113L142.351 131.826V12.9775ZM171.066 153.335L168.783 61.4642H259.58L255.015 153.335H171.066Z"
          fill="#9F94E3" fill-opacity="0.4"/>
    <path d="M244.834 191.338C244.622 191.338 244.427 191.25 244.286 191.09L233.617 179.126C233.352 178.824 233.37 178.346 233.67 178.062C233.971 177.796 234.449 177.814 234.732 178.115L244.675 189.265L257.608 164.059C257.802 163.687 258.245 163.545 258.616 163.74C258.988 163.935 259.129 164.378 258.935 164.75L245.506 190.913C245.4 191.126 245.188 191.285 244.94 191.321C244.887 191.338 244.869 191.338 244.834 191.338Z"
          fill="#36156F"/>
    <path d="M188.669 86.3154C186.759 84.277 184.83 82.2385 182.92 80.2001C182.265 79.4911 181.203 80.5546 181.858 81.2637C183.769 83.3021 185.697 85.3405 187.608 87.3789C188.28 88.0702 189.342 87.0067 188.669 86.3154Z"
          fill="white"/>
    <path d="M182.406 91.0482C181.203 90.9418 180.018 90.8355 178.815 90.7291C177.86 90.6405 177.86 92.1471 178.815 92.218C180.018 92.3244 181.203 92.4307 182.406 92.5371C183.362 92.6434 183.362 91.1368 182.406 91.0482Z"
          fill="white"/>
    <path d="M201.797 160.868L239.287 160.939C238.915 155.905 236.155 142.292 235.872 142.061C235.147 137.47 226.672 100.194 222.709 90.0727C220.887 85.4287 219.029 80.8024 216.075 76.761C216.039 76.7078 213.951 75.9102 212.801 75.9102C212.253 76.5483 211.457 80.9796 211.227 81.6177C209.953 78.9589 208.272 75.272 205.565 77.0269C203.177 78.569 204.044 81.6532 204.769 84.5602C204.645 84.5956 204.522 84.6488 204.38 84.6842C203.566 83.1598 202.168 81.6532 200.983 80.3238C199.815 79.0121 197.303 80.182 196.825 81.7064C196.666 82.2204 200.771 98.4569 201.337 100.371C200.842 101.08 195.162 97.9428 194.225 97.7124C191.712 97.0743 189.342 97.8187 187.679 99.8217C185.998 101.86 184.211 104.111 183.786 106.699C183.096 110.829 185.732 112.531 187.077 111.875L186.511 113.86C185.343 113.311 183.291 115.828 183.256 116.076C181.256 119.745 181.805 125.151 184.6 128.306C184.742 128.466 191.394 136.389 195.658 139.757C197.055 142.008 198.294 144.312 199.444 146.688C199.444 147.024 200.983 157.66 201.797 160.868ZM199.249 120.454C198.913 121.943 198.188 123.202 196.914 123.786C194.826 124.744 193.145 123.999 192.049 122.581C191.447 122.227 190.952 121.73 190.633 120.986C190.173 119.887 189.979 118.699 189.66 117.565C189.359 116.448 188.917 115.42 188.298 114.463C186.918 113.559 187.183 111.024 189.218 111.077C189.979 111.148 190.226 109.677 190.739 108.915C191.323 108.064 192.066 107.408 193.075 107.107C194.932 106.557 196.825 107.302 197.975 108.791C200.169 111.662 200.169 116.395 199.55 119.798C199.497 120.046 199.391 120.277 199.249 120.454Z"
          fill="white"/>
    <path d="M201.921 161.808C201.532 161.808 201.213 161.506 201.178 161.116C200.346 150.073 197.763 142.522 193.694 139.279C189.961 136.265 178.072 125.754 182.194 116.59C183.309 114.126 184.441 113.063 185.432 112.69C184.034 112.123 183.167 110.741 183.185 109.057C183.22 106.664 184.441 101.842 187.519 99.0596C189.165 97.5707 191.075 96.8971 193.199 97.0744C199.975 97.6239 202.487 101.949 202.575 102.126C202.77 102.481 202.646 102.941 202.292 103.136C201.938 103.331 201.478 103.207 201.266 102.853C201.178 102.693 199.019 99.0419 193.075 98.5456C191.376 98.4215 189.837 98.9533 188.51 100.159C185.927 102.498 184.706 106.788 184.671 109.074C184.653 110.28 185.326 111.201 186.352 111.414C187.289 111.609 188.669 111.131 189.465 109.181C190.403 106.93 192.491 105.583 194.596 105.884C196.1 106.114 199.656 107.568 200.541 116.324C201.018 121.039 199.621 123.042 198.382 123.893C196.932 124.886 194.844 124.868 192.792 123.84C190.952 122.9 189.059 121.057 188.988 119.018C188.899 116.643 187.732 114.268 186.529 114.038C185.626 113.878 184.529 115.012 183.556 117.193C180.637 123.698 187.36 132.259 194.632 138.091C199.09 141.654 201.797 149.364 202.664 160.992C202.699 161.4 202.381 161.772 201.974 161.79C201.956 161.807 201.938 161.808 201.921 161.808ZM187.59 112.868C189.306 113.807 190.385 116.519 190.474 118.983C190.509 120.188 191.765 121.677 193.464 122.528C195.021 123.308 196.542 123.379 197.551 122.688C198.86 121.784 199.373 119.657 199.072 116.501C198.542 111.148 196.79 107.745 194.402 107.391C192.969 107.178 191.535 108.17 190.863 109.783C190.067 111.698 188.793 112.602 187.59 112.868Z"
          fill="#5000B6"/>
    <path d="M203.814 108.153C203.496 108.153 203.212 107.958 203.106 107.639C196.772 89.0625 195.109 83.2841 196.401 80.6784C196.755 79.9517 197.356 79.4554 198.241 79.154C202.009 77.8778 204.84 84.1526 206.503 87.8927L206.627 88.1585C206.804 88.5308 206.627 88.9739 206.255 89.1512C205.884 89.3107 205.442 89.1512 205.265 88.7789L205.141 88.513C203.867 85.6593 201.231 79.739 198.701 80.5721C198.206 80.7316 197.905 80.962 197.728 81.3343C196.649 83.5322 199.09 91.2605 204.504 107.142C204.646 107.532 204.433 107.958 204.044 108.1C203.991 108.135 203.902 108.153 203.814 108.153Z"
          fill="#5000B6"/>
    <path d="M211.368 105.565C211.05 105.565 210.767 105.37 210.661 105.051C204.327 86.4746 202.664 80.6961 203.955 78.0905C204.309 77.3638 204.911 76.8675 205.795 76.5661C209.369 75.3785 211.528 80.3416 213.102 83.9576L213.545 84.9502C213.721 85.3225 213.545 85.7656 213.173 85.9429C212.801 86.1201 212.359 85.9429 212.182 85.5706L211.74 84.5603C210.466 81.6356 208.555 77.222 206.273 77.9842C205.778 78.1437 205.477 78.3741 205.3 78.7463C204.221 80.9443 206.662 88.6726 212.076 104.555C212.218 104.944 212.005 105.37 211.616 105.512C211.528 105.547 211.439 105.565 211.368 105.565Z"
          fill="#5000B6"/>
    <path d="M239.021 161.808C238.65 161.808 238.314 161.524 238.278 161.134C235.447 131.798 223.647 94.4333 220.728 87.0241C216.871 77.2928 214.641 76.3889 213.651 76.7434C213.155 76.9029 212.854 77.1333 212.678 77.5056C211.598 79.6858 214.04 87.414 219.454 103.331C219.578 103.721 219.383 104.147 218.994 104.289C218.604 104.413 218.18 104.218 218.038 103.828C211.705 85.2338 210.059 79.4553 211.333 76.8497C211.687 76.123 212.288 75.6267 213.173 75.3431C216.747 74.1377 220.002 81.1215 222.125 86.4923C225.062 93.937 236.934 131.515 239.782 161.01C239.817 161.418 239.517 161.79 239.11 161.825C239.074 161.808 239.057 161.808 239.021 161.808Z"
          fill="#5000B6"/>
    <path d="M216.588 133.145C215.155 126.516 209.511 122.067 202.752 122.244C201.797 122.262 201.797 123.769 202.752 123.733C208.874 123.591 213.863 127.544 215.154 133.535C215.349 134.475 216.8 134.085 216.588 133.145Z"
          fill="#5000B6"/>
    <path d="M249.743 161.808H165.793C165.386 161.808 165.05 161.488 165.05 161.081L162.768 69.1924C162.768 68.9974 162.839 68.8024 162.98 68.6606C163.122 68.5188 163.316 68.4302 163.511 68.4302H254.307C254.52 68.4302 254.714 68.5188 254.856 68.6606C254.997 68.8024 255.068 69.0151 255.068 69.2101L250.504 161.099C250.468 161.489 250.132 161.808 249.743 161.808ZM166.519 160.319H249.035L253.529 69.9368H164.289L166.519 160.319Z"
          fill="#5000B6"/>
    <path d="M128.675 53.0898C128.87 51.725 127.737 49.9879 125.897 50.2715C111.337 52.4163 96.7228 52.8239 83.1529 57.5389C70.3084 49.013 48.9009 45.7161 11.0219 49.1016C10.3496 49.1548 9.78344 49.4029 9.39421 49.8461C9.44729 50.8741 9.51806 51.9022 9.55344 52.9303C9.6419 55.1991 9.53575 57.468 9.48267 59.7546C9.46498 60.5345 9.44728 61.3144 9.42959 62.0766C9.71267 67.0574 9.94266 72.0383 10.0311 77.0546C10.0842 80.2274 10.1373 83.4002 10.2434 86.5731V86.5908C10.2611 87.1226 10.2788 87.6721 10.3142 88.2038C10.385 88.7533 10.4557 89.2851 10.5265 89.8346C10.4911 89.9055 10.4734 89.9764 10.4557 90.065C10.1727 91.3058 10.7211 92.5111 11.8711 93.1138C13.145 93.7873 14.4896 93.3442 15.728 92.8479C15.9049 92.777 16.0995 92.7061 16.2765 92.6352C18.7711 92.5997 21.248 92.582 23.7426 92.5465C23.778 92.5643 23.831 92.5643 23.8664 92.582C27.6702 93.2378 31.4918 93.8228 35.3133 94.3368C35.561 95.7371 35.8794 97.1374 36.5517 98.3782C36.6402 99.0518 39.5948 102.313 41.0278 103.341C41.5586 105.096 44.0001 106.337 45.9109 107.099C45.9463 107.135 45.9817 107.152 46.0347 107.188C46.0878 107.294 46.1232 107.418 46.194 107.525C46.7247 108.304 47.3793 109.12 48.1047 109.9C48.8301 110.821 49.697 111.655 50.4578 112.293C50.8824 112.753 51.3778 113.126 51.8908 113.427C51.997 114.296 52.3155 115.164 52.8639 115.98C55.6239 120.003 63.55 115.962 64.1161 115.98C64.9654 116.724 65.7969 117.468 66.6461 118.213C72.4492 123.265 79.5614 122.166 82.1091 116.972C83.5599 117.008 88.7614 116.6 89.9114 115.643C90.9729 114.756 91.6098 113.463 91.5567 112.169C91.8575 111.903 96.0505 112.186 97.4305 110.768C98.3328 109.847 98.8459 107.454 98.7574 106.266C98.8459 106.355 98.9344 106.443 99.0582 106.479C100.084 106.798 104.914 105.415 105.923 104.157C107.692 101.923 107.621 98.9277 106.294 96.5879C106.931 96.2157 107.604 95.9144 108.294 95.6662C113.106 94.5672 128.498 94.0355 131.346 93.7164C131.364 93.7164 131.382 93.7164 131.4 93.7164C131.789 93.3265 132.196 92.9542 132.585 92.5643C133.876 91.2349 135.097 89.7637 136.123 88.2038C133.912 76.4342 131.435 64.7354 128.675 53.0898Z"
          fill="white"/>
    <path d="M104.667 83.5065C104.667 83.5065 104.649 83.5065 104.667 83.5065C98.4212 83.3647 81.0121 73.5271 78.0398 71.8255C75.8814 73.2612 65.6376 79.8374 60.6484 78.4548C58.5607 77.8876 57.4107 76.8949 57.2338 75.5301C56.9684 73.5448 58.3838 69.8757 73.5283 60.9598C86.4259 53.3733 100.633 49.9878 150.737 49.9878C151.144 49.9878 151.48 50.3246 151.48 50.7323C151.48 51.1399 151.144 51.4767 150.737 51.4767C100.987 51.4767 86.939 54.7914 74.2891 62.2538C60.3299 70.4783 58.543 73.988 58.7199 75.3528C58.8084 76.0618 59.6045 76.6291 61.0553 77.0367C65.0537 78.1357 74.3598 72.5877 77.5975 70.3543C77.8275 70.1947 78.146 70.177 78.3936 70.3188C78.5883 70.4429 98.4035 81.8935 104.684 82.0353C105.091 82.053 105.427 82.3898 105.41 82.7975C105.41 83.1875 105.073 83.5065 104.667 83.5065Z"
          fill="#5000B6"/>
    <path d="M150.737 47.896H125.543L130.179 98.7324H150.737V47.896Z" fill="#5000B6"/>
    <path d="M150.737 99.477H130.179C129.789 99.477 129.471 99.1756 129.436 98.8034L124.8 47.967C124.783 47.7543 124.853 47.5416 124.995 47.3998C125.136 47.2402 125.331 47.1516 125.543 47.1516H150.737C151.144 47.1516 151.48 47.4884 151.48 47.8961V98.7325C151.48 99.1402 151.144 99.477 150.737 99.477ZM130.869 97.9703H149.994V48.6405H126.357L130.869 97.9703Z"
          fill="#5000B6"/>
    <path d="M82.4274 58.1769C82.2682 58.1769 82.0913 58.1237 81.9498 57.9997C77.1552 54.0292 63.603 47.5062 26.8032 48.5875L25.264 48.6407C19.7794 48.8356 14.1179 49.1902 8.45641 49.6687C8.04949 49.7042 7.67795 49.4028 7.64257 48.9952C7.60718 48.5875 7.90795 48.2152 8.31487 48.1798C13.9941 47.7012 19.6733 47.3467 25.2109 47.1517L26.7501 47.0986C64.0453 46.0173 77.9336 52.753 82.9051 56.8652C83.2236 57.1311 83.2767 57.592 83.0113 57.911C82.8521 58.0883 82.6398 58.1769 82.4274 58.1769Z"
          fill="#5000B6"/>
    <path d="M38.2324 96.8891C38.0554 96.8891 37.8785 96.8182 37.7193 96.6942C36.1447 95.2407 32.8893 94.3012 28.0947 93.9113C27.5817 93.8581 27.0863 93.8226 26.5378 93.7872C22.3978 93.539 17.1787 93.6454 10.5441 94.0531C10.1372 94.0708 9.78332 93.7695 9.74793 93.3618C9.73024 92.9541 10.031 92.5996 10.4379 92.5642C17.1256 92.1387 22.4155 92.0501 26.6086 92.2983C27.1747 92.3337 27.7055 92.3692 28.2186 92.4223C33.4024 92.8478 36.8524 93.8758 38.71 95.5952C39.0108 95.8788 39.0285 96.3397 38.7454 96.6587C38.6393 96.8005 38.4447 96.8891 38.2324 96.8891Z"
          fill="#5000B6"/>
    <path d="M100.014 107.524C99.9428 107.524 100.261 107.471 100.261 107.471C99.8543 107.454 99.182 107.152 99.1997 106.745C99.2174 106.337 99.5889 106.018 99.9781 106.036C100.155 106.036 104.843 106.124 105.746 101.427C106.807 95.8612 99.872 86.7858 86.7444 76.5405C86.4259 76.2924 86.3552 75.8138 86.6205 75.4947C86.8682 75.1756 87.3459 75.1048 87.6644 75.3706C101.464 86.1299 108.4 95.489 107.214 101.711C106.17 107.259 100.792 107.524 100.014 107.524Z"
          fill="#5000B6"/>
    <path d="M92.5828 112.629C92.4943 112.629 92.4058 112.629 92.3174 112.629C91.9105 112.629 91.5743 112.275 91.5743 111.867C91.5743 111.46 91.9458 111.123 92.3351 111.123C95.5727 111.194 97.4658 110.272 97.9789 108.411C99.6066 102.508 88.3366 88.6825 79.1898 83.4003C78.8359 83.1876 78.7121 82.7445 78.9244 82.3722C79.1367 82.0177 79.579 81.8936 79.9505 82.1063C88.6728 87.1403 101.393 101.711 99.4296 108.818C98.9342 110.573 97.3597 112.629 92.5828 112.629Z"
          fill="#5000B6"/>
    <path d="M84.3913 117.77C83.7543 117.77 83.082 117.734 82.3744 117.681C81.9674 117.645 81.6667 117.291 81.7021 116.866C81.7374 116.458 82.109 116.157 82.5159 116.192C86.8151 116.564 89.3805 115.767 90.1058 113.817C92.1404 108.446 81.3482 95.2229 73.3513 89.2671C73.0152 89.019 72.9444 88.5581 73.1921 88.2213C73.4398 87.8846 73.9175 87.8314 74.2359 88.0618C81.4367 93.4326 94.0689 107.577 91.5035 114.349C90.6189 116.635 88.2305 117.77 84.3913 117.77Z"
          fill="#5000B6"/>
    <path d="M74.8906 122.148C71.7944 122.148 68.256 120.712 65.266 117.078C65.0006 116.759 65.0537 116.281 65.3722 116.033C65.6906 115.767 66.1506 115.82 66.416 116.139C70.326 120.872 75.209 121.439 78.3229 119.879C80.5875 118.745 81.6667 116.706 81.1536 114.544C80.0921 110.077 73.6698 102.455 64.806 95.0989C64.4876 94.8331 64.4345 94.3722 64.6999 94.0531C64.9653 93.7341 65.4253 93.6986 65.7437 93.9468C74.979 101.604 81.4367 109.368 82.5867 114.207C83.259 117.025 81.8436 119.79 78.9598 121.226C77.7921 121.811 76.3944 122.148 74.8906 122.148Z"
          fill="#5000B6"/>
    <path d="M43.2393 102.721C42.0539 102.721 41.0631 102.491 40.267 102.189C37.4362 101.09 35.3839 98.3605 34.6409 94.6914C34.5524 94.2837 34.8178 93.8937 35.2247 93.8051C35.6316 93.7165 36.0209 93.9823 36.1093 94.39C36.7462 97.5452 38.4624 99.8672 40.8154 100.789C43.6108 101.87 47.1139 100.948 50.9354 98.1301C54.0315 95.8435 55.4469 93.6987 54.7215 92.3693C53.9961 91.0399 51.3246 90.6145 49.1308 91.4653C44.6016 93.2202 38.6747 96.7475 38.6216 96.783C38.2678 96.9957 37.8078 96.8716 37.5955 96.5171C37.3832 96.1626 37.507 95.7017 37.8609 95.489C38.1085 95.3472 43.9647 91.873 48.6 90.065C51.5369 88.9129 54.9515 89.6396 56.0484 91.6426C56.7207 92.8656 57.0569 95.4713 51.82 99.3177C48.3169 101.906 45.4508 102.721 43.2393 102.721Z"
          fill="#5000B6"/>
    <path d="M47.7685 108.411C47.0077 108.411 46.2646 108.304 45.5746 108.092C43.08 107.365 41.0454 105.344 39.7008 102.242C39.5416 101.87 39.7008 101.427 40.09 101.25C40.4616 101.09 40.9039 101.25 41.0808 101.64C41.8946 103.501 43.4162 105.894 46.0169 106.656C48.3523 107.347 51.1477 106.62 54.3146 104.493C58.5607 101.657 58.9499 99.9025 58.8084 99.1225C58.5961 98.0236 57.0569 97.0664 54.5623 96.5346C54.1553 96.446 53.9076 96.056 53.9961 95.6484C54.0846 95.2407 54.4738 94.9925 54.8807 95.0812C58.0653 95.7902 59.9407 97.0841 60.2591 98.8567C60.6484 100.913 58.9145 103.217 55.1284 105.752C52.4746 107.524 50.0154 108.411 47.7685 108.411Z"
          fill="#5000B6"/>
    <path d="M52.97 113.835C52.3508 113.835 51.7846 113.764 51.2892 113.64C48.7593 113.055 46.6539 111.123 45.3624 108.18C45.2031 107.808 45.3624 107.365 45.7516 107.188C46.1231 107.028 46.5654 107.188 46.7424 107.578C47.8393 110.059 49.5731 111.708 51.6254 112.186C54.0669 112.753 56.9331 111.725 59.9053 109.208C62.2938 107.188 63.4438 105.185 63.0899 103.713C62.7184 102.225 60.8784 101.516 59.3923 101.196C58.9853 101.108 58.7377 100.718 58.8261 100.31C58.9146 99.9025 59.3215 99.6544 59.7107 99.743C63.143 100.505 64.2399 102.136 64.5407 103.359C65.0538 105.433 63.7446 107.914 60.8784 110.361C57.6584 113.09 54.9692 113.835 52.97 113.835Z"
          fill="#5000B6"/>
    <path d="M57.5524 118.94C56.9331 118.94 56.367 118.869 55.8716 118.745C53.3416 118.16 51.2363 116.228 49.9447 113.285C49.7855 112.913 49.9447 112.47 50.334 112.293C50.7055 112.133 51.1478 112.293 51.3247 112.683C52.4216 115.164 54.1555 116.813 56.2255 117.291C58.667 117.858 61.5331 116.83 64.5054 114.313C66.8938 112.293 68.0438 110.29 67.69 108.818C67.3185 107.33 65.4785 106.621 63.9923 106.301C63.5854 106.213 63.3377 105.823 63.4262 105.415C63.5146 105.008 63.9039 104.759 64.3108 104.848C67.7431 105.61 68.8223 107.241 69.1408 108.464C69.6538 110.538 68.3623 113.019 65.4785 115.465C62.2408 118.195 59.5516 118.94 57.5524 118.94Z"
          fill="#5000B6"/>
    <path d="M68.4684 111.885L68.433 111.903C66.3984 113.711 64.3638 115.483 62.1169 116.954L71.1576 115.022L68.4684 111.885Z"
          fill="#5000B6"/>
    <path d="M62.1345 117.717C61.8337 117.717 61.5683 117.539 61.4445 117.256C61.3029 116.919 61.4268 116.547 61.7275 116.334C63.9921 114.827 66.0975 112.984 67.9552 111.335C68.0967 111.211 68.3267 111.123 68.5214 111.14C68.716 111.158 68.9283 111.229 69.0521 111.389L71.7413 114.544C71.9182 114.739 71.9713 115.022 71.8829 115.27C71.7944 115.519 71.5821 115.714 71.3344 115.767L62.2937 117.699C62.2406 117.717 62.1875 117.717 62.1345 117.717ZM68.3975 112.948C67.4598 113.782 66.4514 114.65 65.3721 115.519L69.7775 114.579L68.3975 112.948Z"
          fill="#5000B6"/>
    <path d="M106.595 96.8893C106.294 96.8893 105.993 96.6944 105.887 96.393C105.746 96.0031 105.958 95.5777 106.347 95.4359C111.053 93.8051 121.474 93.681 132.036 93.7874C132.443 93.7874 132.779 94.1242 132.779 94.5496C132.779 94.9573 132.443 95.2941 132.036 95.2941C121.616 95.1877 111.354 95.3118 106.86 96.8716C106.772 96.8716 106.683 96.8893 106.595 96.8893Z"
          fill="#5000B6"/>
    <path d="M28.1657 93.1668C27.6526 93.1137 27.1572 93.0782 26.5911 93.0428C22.5396 78.2952 22.0972 62.8742 25.2288 47.8962C25.7595 47.8785 26.2549 47.8607 26.768 47.843C23.548 62.8919 24.0434 78.3661 28.1657 93.1668Z"
          fill="#5000B6"/>
    <path d="M15.8694 79.1815C15.7987 81.6808 15.7279 84.1801 15.6748 86.6793C15.6571 87.6365 17.1433 87.6365 17.161 86.6793C17.2318 84.1801 17.3025 81.6808 17.3556 79.1815C17.391 78.2243 15.9048 78.2243 15.8694 79.1815Z"
          fill="#5000B6"/>
    <path d="M12.0303 144.305C11.6234 144.305 11.3049 143.985 11.2872 143.578L7.64264 21.9816C7.64264 21.7866 7.71341 21.5916 7.85495 21.4321C7.99649 21.2903 8.1911 21.2017 8.38571 21.2017L150.737 21.6625C151.144 21.6625 151.48 21.9993 151.48 22.407V141.256C151.48 141.663 151.162 142 150.737 142L12.0303 144.305C12.048 144.305 12.0303 144.305 12.0303 144.305ZM9.14648 22.7261L12.7557 142.816L149.994 140.547V23.1692L9.14648 22.7261Z"
          fill="#5000B6"/>
</svg>
